<svg xmlns="http://www.w3.org/2000/svg" x="0px" y="0px"
width="64" height="64"
viewBox="0 0 172 172"
style=" fill:#000000;"><g fill="none" fill-rule="nonzero" stroke="none" stroke-width="1" stroke-linecap="butt" stroke-linejoin="miter" stroke-miterlimit="10" stroke-dasharray="" stroke-dashoffset="0" font-family="none" font-weight="none" font-size="none" text-anchor="none" style="mix-blend-mode: normal"><path d="M0,172v-172h172v172z" fill="none"></path><path d="M86,155.66c-38.47216,0 -69.66,-31.18784 -69.66,-69.66v0c0,-38.47216 31.18784,-69.66 69.66,-69.66v0c38.47216,0 69.66,31.18784 69.66,69.66v0c0,38.47216 -31.18784,69.66 -69.66,69.66z" fill="#2ecc71"></path><g><path d="M125.18373,43.85703c1.60102,0.00478 2.89772,1.30148 2.9025,2.9025c-0.01185,1.59807 -1.30443,2.89065 -2.9025,2.9025h-11.61c-1.60102,-0.00478 -2.89772,-1.30148 -2.9025,-2.9025c0.01185,-1.59807 1.30443,-2.89065 2.9025,-2.9025z" fill="#bddbff"></path><rect x="66.25925" y="67.22018" transform="scale(1.45125,1.45125)" width="6" height="6" fill="#bddbff"></rect><rect x="66.25925" y="61.22018" transform="scale(1.45125,1.45125)" width="6" height="6" fill="#bddbff"></rect><circle cx="65.25925" cy="85.22018" transform="scale(1.45125,1.45125)" r="3" fill="#bddbff"></circle><rect x="60.25925" y="67.22018" transform="scale(1.45125,1.45125)" width="6" height="6" fill="#bddbff"></rect><path d="M96.15873,64.17453c0.00091,1.46366 -0.15478,2.92321 -0.4644,4.35375h-6.00817c1.87461,-5.96511 -0.28219,-12.46029 -5.35258,-16.11924c-5.07039,-3.65894 -11.9143,-3.65894 -16.98469,0c-5.07039,3.65894 -7.22719,10.15412 -5.35258,16.11924h-6.00817c-1.65287,-7.5977 1.17535,-15.47244 7.28446,-20.28241c6.10911,-4.80997 14.42761,-5.71154 21.42539,-2.32212c6.99778,3.38943 11.44746,10.47537 11.46075,18.25078z" fill="#bddbff"></path><path d="M89.68616,68.52828h6.00817c-2.04757,9.32364 -10.30727,15.96626 -19.8531,15.96626c-9.54583,0 -17.80553,-6.64262 -19.8531,-15.96626h6.00817c1.90046,6.04736 7.50597,10.16156 13.84493,10.16156c6.33895,0 11.94447,-4.1142 13.84492,-10.16156z" fill="#bddbff"></path><rect x="54.25925" y="67.22018" transform="scale(1.45125,1.45125)" width="6" height="6" fill="#bddbff"></rect><rect x="48.25925" y="67.22018" transform="scale(1.45125,1.45125)" width="6" height="6" fill="#bddbff"></rect><rect x="42.25925" y="67.22018" transform="scale(1.45125,1.45125)" width="6" height="6" fill="#bddbff"></rect><path d="M61.32873,97.55328v8.7075h-10.15875l-1.66894,-8.7075z" fill="#bddbff"></path><path d="M61.32873,88.84578v8.7075h-11.82769l-1.68345,-8.7075z" fill="#bddbff"></path><circle cx="38.25925" cy="85.22018" transform="scale(1.45125,1.45125)" r="3" fill="#bddbff"></circle><path d="M125.18373,42.40578h-11.61c-1.83842,0.00762 -3.47392,1.1692 -4.08672,2.9025h-3.16953c-0.55267,-0.00302 -1.05908,0.30814 -1.30613,0.80254l-1.45125,2.9025c-0.09791,0.2021 -0.14759,0.42416 -0.14512,0.64871v17.415h-6.02124c1.20131,-8.43073 -2.62373,-16.78781 -9.78968,-21.38884c-7.16595,-4.60103 -16.35681,-4.60103 -23.52276,0c-7.16595,4.60103 -10.991,12.95811 -9.78968,21.38884h-10.37789c-0.43295,-0.00001 -0.84329,0.19328 -1.11899,0.5271c-0.2757,0.33382 -0.38796,0.77329 -0.30614,1.19844l7.25625,37.7325c0.1315,0.68322 0.72937,1.17698 1.42513,1.17696h52.245v2.9025h-53.69625c-2.40451,0 -4.35375,1.94924 -4.35375,4.35375c0,2.40451 1.94924,4.35375 4.35375,4.35375h2.00563c-1.83273,1.58654 -2.48668,4.14486 -1.6401,6.41628c0.84658,2.27142 3.01542,3.77766 5.43948,3.77766c2.42405,0 4.5929,-1.50624 5.43948,-3.77766c0.84658,-2.27142 0.19263,-4.82974 -1.6401,-6.41628h31.585c-1.83273,1.58654 -2.48668,4.14486 -1.6401,6.41628c0.84658,2.27142 3.01542,3.77766 5.43948,3.77766c2.42405,0 4.5929,-1.50624 5.43948,-3.77766c0.84658,-2.27142 0.19263,-4.82974 -1.6401,-6.41628h6.35938v-2.9025h-55.1475c-0.8015,0 -1.45125,-0.64975 -1.45125,-1.45125c0,-0.8015 0.64975,-1.45125 1.45125,-1.45125h55.1475c0.8015,0 1.45125,-0.64975 1.45125,-1.45125v-62.06125l0.89687,-1.79375h2.27266c0.6128,1.7333 2.2483,2.89488 4.08672,2.9025h11.61c2.40451,0 4.35375,-1.94924 4.35375,-4.35375c0,-2.40451 -1.94924,-4.35375 -4.35375,-4.35375zM55.52373,126.57828c-1.60301,0 -2.9025,-1.29949 -2.9025,-2.9025c0,-1.60301 1.29949,-2.9025 2.9025,-2.9025c1.60301,0 2.9025,1.29949 2.9025,2.9025c0,1.60301 -1.29949,2.9025 -2.9025,2.9025zM94.70748,126.57828c-1.60301,0 -2.9025,-1.29949 -2.9025,-2.9025c0,-1.60301 1.29949,-2.9025 2.9025,-2.9025c1.60301,0 2.9025,1.29949 2.9025,2.9025c0,1.60301 -1.29949,2.9025 -2.9025,2.9025zM75.84123,45.30828c10.41954,0 18.86625,8.44671 18.86625,18.86625c0,10.41954 -8.44671,18.86625 -18.86625,18.86625c-10.41954,0 -18.86625,-8.44671 -18.86625,-18.86625c0.012,-10.41457 8.45168,-18.85425 18.86625,-18.86625zM54.88228,69.97953c2.60018,9.4296 11.17742,15.96181 20.95895,15.96181c9.78153,0 18.35877,-6.53221 20.95895,-15.96181h6.6148v17.415h-5.805v-1.45125h-2.9025v1.45125h-4.35375v2.9025h4.35375v5.805h-5.805v-5.805h-2.9025v5.805h-5.805v-4.35375h-2.9025v4.35375h-5.805v-7.25625h-2.9025v7.25625h-5.805v-7.25625c0,-0.8015 -0.64975,-1.45125 -1.45125,-1.45125h-12.30805l-3.34949,-17.415zM103.41498,90.29703v5.805h-5.805v-5.805zM71.48748,99.00453h5.805v5.805h-5.805zM68.58498,104.80953h-5.805v-5.805h5.805zM80.19498,99.00453h5.805v5.805h-5.805zM88.90248,99.00453h5.805v5.805h-5.805zM49.57361,90.29703h10.30387v5.805h-9.18351zM51.24835,99.00453h8.62913v5.805h-7.50877zM97.60998,104.80953v-5.805h5.805v5.805zM125.18373,48.21078h-11.61c-0.8015,0 -1.45125,-0.64975 -1.45125,-1.45125c0,-0.8015 0.64975,-1.45125 1.45125,-1.45125h11.61c0.8015,0 1.45125,0.64975 1.45125,1.45125c0,0.8015 -0.64975,1.45125 -1.45125,1.45125z" fill="#3d9ae2"></path><path d="M75.84123,80.13828c8.81654,0 15.96375,-7.14721 15.96375,-15.96375c0,-8.81654 -7.14721,-15.96375 -15.96375,-15.96375c-8.81654,0 -15.96375,7.14721 -15.96375,15.96375c0.0104,8.81223 7.15152,15.95335 15.96375,15.96375zM75.84123,51.11328c7.21353,0 13.06125,5.84772 13.06125,13.06125c0,7.21353 -5.84772,13.06125 -13.06125,13.06125c-7.21353,0 -13.06125,-5.84772 -13.06125,-13.06125c0.008,-7.21021 5.85104,-13.05325 13.06125,-13.06125z" fill="#3d9ae2"></path><path d="M77.29248,68.52828h-2.9025c-0.8015,0 -1.45125,-0.64975 -1.45125,-1.45125h-2.9025c0,2.40451 1.94924,4.35375 4.35375,4.35375v2.9025h2.9025v-2.9025c2.40451,0 4.35375,-1.94924 4.35375,-4.35375c0,-2.40451 -1.94924,-4.35375 -4.35375,-4.35375h-2.9025c-0.8015,0 -1.45125,-0.64975 -1.45125,-1.45125c0,-0.8015 0.64975,-1.45125 1.45125,-1.45125h2.9025c0.8015,0 1.45125,0.64975 1.45125,1.45125h2.9025c0,-2.40451 -1.94924,-4.35375 -4.35375,-4.35375v-2.9025h-2.9025v2.9025c-2.40451,0 -4.35375,1.94924 -4.35375,4.35375c0,2.40451 1.94924,4.35375 4.35375,4.35375h2.9025c0.8015,0 1.45125,0.64975 1.45125,1.45125c0,0.8015 -0.64975,1.45125 -1.45125,1.45125z" fill="#3d9ae2"></path></g><path d="M86,155.66c-38.47216,0 -69.66,-31.18784 -69.66,-69.66v0c0,-38.47216 31.18784,-69.66 69.66,-69.66v0c38.47216,0 69.66,31.18784 69.66,69.66v0c0,38.47216 -31.18784,69.66 -69.66,69.66z" fill="none"></path><path d="M86,152.22c-36.5723,0 -66.22,-29.6477 -66.22,-66.22v0c0,-36.5723 29.6477,-66.22 66.22,-66.22v0c36.5723,0 66.22,29.6477 66.22,66.22v0c0,36.5723 -29.6477,66.22 -66.22,66.22z" fill="none"></path></g></svg>